# xmcd
#
# Track frame offsets: 
#        150
#        19848
#        40142
#        58059
#        77858
#        98664
#        117635
#        143745
#        161817
#        190409
#        210402
#
# Disc length: 3012 seconds
#
# Revision: 0
# Processed by: cddbd v1.5.2PL0 Copyright (c) Steve Scherf et al.
# Submitted via: ExactAudioCopy v0.99pb5
#
DISCID=980bc20b
DTITLE=The Who  - Who Are You (First U.S MCA Pressing With Bonus)  FLA
DTITLE=C
DYEAR=1900
DGENRE=
TTITLE0=New Song
TTITLE1=Had Enough
TTITLE2=905
TTITLE3=Sister Disco
TTITLE4=Music Must Change
TTITLE5=Trick of the Light
TTITLE6=Guitar and Pen
TTITLE7=Love Is Coming Down
TTITLE8=Who Are You
TTITLE9=Who Are You (U.S Single Edit)
TTITLE10=Had Enough (U.S Single)
EXTD=
EXTT0=
EXTT1=
EXTT2=
EXTT3=
EXTT4=
EXTT5=
EXTT6=
EXTT7=
EXTT8=
EXTT9=
EXTT10=
PLAYORDER=
